Run_30002
nRows=4
nColumns=164

# SIMM Motion File Header:
name Run_30002
datacolumns 164
datarows 4
otherdata 1
range 2.42000000 2.45000000
endheader
time	pelvis_tilt	pelvis_list	pelvis_rotation	pelvis_tx	pelvis_ty	pelvis_tz	hip_flexion_r	hip_adduction_r	hip_rotation_r	knee_angle_r	ankle_angle_r	hip_flexion_l	hip_adduction_l	hip_rotation_l	knee_angle_l	ankle_angle_l	lumbar_extension	lumbar_bending	lumbar_rotation	arm_flex_r	arm_add_r	arm_rot_r	elbow_flex_r	pro_sup_r	arm_flex_l	arm_add_l	arm_rot_l	elbow_flex_l	pro_sup_l	subtalar_angle_r	mtp_angle_r	subtalar_angle_l	mtp_angle_l	wrist_flex_r	wrist_dev_r	wrist_flex_l	wrist_dev_l	LASI_tx	LASI_ty	LASI_tz	RASI_tx	RASI_ty	RASI_tz	LPSI_tx	LPSI_ty	LPSI_tz	RPSI_tx	RPSI_ty	RPSI_tz	RTH1_tx	RTH1_ty	RTH1_tz	RTH2_tx	RTH2_ty	RTH2_tz	RTH3_tx	RTH3_ty	RTH3_tz	LTH1_tx	LTH1_ty	LTH1_tz	LTH2_tx	LTH2_ty	LTH2_tz	LTH3_tx	LTH3_ty	LTH3_tz	RTB1_tx	RTB1_ty	RTB1_tz	RTB2_tx	RTB2_ty	RTB2_tz	RTB3_tx	RTB3_ty	RTB3_tz	LTB1_tx	LTB1_ty	LTB1_tz	LTB2_tx	LTB2_ty	LTB2_tz	LTB3_tx	LTB3_ty	LTB3_tz	RCAL_tx	RCAL_ty	RCAL_tz	RTOE_tx	RTOE_ty	RTOE_tz	RMT5_tx	RMT5_ty	RMT5_tz	LCAL_tx	LCAL_ty	LCAL_tz	LTOE_tx	LTOE_ty	LTOE_tz	LMT5_tx	LMT5_ty	LMT5_tz	LACR_tx	LACR_ty	LACR_tz	RACR_tx	RACR_ty	RACR_tz	CLAV_tx	CLAV_ty	CLAV_tz	C7_tx	C7_ty	C7_tz	RUA1_tx	RUA1_ty	RUA1_tz	RUA2_tx	RUA2_ty	RUA2_tz	RUA3_tx	RUA3_ty	RUA3_tz	RLEL_tx	RLEL_ty	RLEL_tz	RMEL_tx	RMEL_ty	RMEL_tz	LUA1_tx	LUA1_ty	LUA1_tz	LUA2_tx	LUA2_ty	LUA2_tz	LUA3_tx	LUA3_ty	LUA3_tz	LLEL_tx	LLEL_ty	LLEL_tz	LMEL_tx	LMEL_ty	LMEL_tz	RFAsuperior_tx	RFAsuperior_ty	RFAsuperior_tz	RFAradius_tx	RFAradius_ty	RFAradius_tz	RFAulna_tx	RFAulna_ty	RFAulna_tz	LFAsuperior_tx	LFAsuperior_ty	LFAsuperior_tz	LFAradius_tx	LFAradius_ty	LFAradius_tz	LFAulna_tx	LFAulna_ty	LFAulna_tz
      2.42000000	    -13.93188063	      3.43317759	      3.33888794	      0.95048725	      0.96555836	     -0.34686169	     29.04471390	     -4.98951957	     -0.15894555	    -95.83366813	     -0.22590819	     35.36090580	     11.35027199	     -0.78364238	    -43.00419267	     20.33876771	      0.94688168	     -5.80335484	      0.79493743	    -26.23033795	    -17.06079796	     -9.16383183	     87.01017271	    116.94126578	    -29.63232110	    -11.84176989	     -9.13607985	    104.45761949	    100.28690340	      0.00000000	      0.00000000	      0.00000000	      0.00000000	      0.00000000	      0.00000000	      0.00000000	      0.00000000	      0.96470000	      1.00710057	     -0.45876458	      0.97869519	      1.00509930	     -0.22238105	      0.80860759	      1.07349656	     -0.39596337	      0.81396798	      1.06409616	     -0.28285319	      0.90954315	      0.88400346	     -0.17996492	      0.87880887	      0.73571573	     -0.18933821	      0.94641574	      0.59008152	     -0.18979179	      0.91665480	      0.89084038	     -0.52524796	      0.88867359	      0.72845335	     -0.46915272	      0.97439689	      0.61159782	     -0.46465416	      0.86219620	      0.40217533	     -0.24874327	      0.79740260	      0.46864514	     -0.17968604	      0.67177529	      0.38801360	     -0.25304703	      1.03636017	      0.39513626	     -0.38061973	      0.92627952	      0.30966649	     -0.42636310	      0.93988898	      0.19848338	     -0.35568226	      0.52384811	      0.47856728	     -0.24769463	      0.54869976	      0.23821043	     -0.27334742	      0.51404646	      0.27760557	     -0.18077605	      0.77272725	      0.10179877	     -0.32459553	      1.00979859	      0.07196565	     -0.31743011	      0.95845104	      0.03851926	     -0.41469557	      0.94230157	      1.48604170	     -0.52009868	      0.98940146	      1.47801916	     -0.19471751	      1.03441498	      1.44483017	     -0.33065155	      0.91009056	      1.51569470	     -0.35636517	      0.87713191	      1.39140936	     -0.12391610	      0.91572683	      1.32828837	     -0.09635499	      0.84248289	      1.26163242	     -0.05030871	      0.80481992	      1.21077402	     -0.01902827	      0.79108113	      1.18203140	     -0.10229007	      0.83446503	      1.39228974	     -0.55955641	      0.85147925	      1.31047355	     -0.58236715	      0.77043360	      1.25258001	     -0.59493034	      0.74192031	      1.19053375	     -0.61020770	      0.73960659	      1.17440914	     -0.52134979	      0.88005746	      1.12674393	     -0.01907716	      1.00283728	      1.02742450	     -0.11431275	      0.97190465	      1.00128912	     -0.05874434	      0.79719881	      1.12450514	     -0.61215137	      0.97515961	      1.09291076	     -0.54682750	      0.95033082	      1.03216295	     -0.57432872
      2.43000000	    -14.01447441	      3.81022627	      2.94161639	      0.94889860	      0.96450833	     -0.34601498	     32.03800606	     -5.08173122	      1.16750482	    -97.27284169	      1.08023757	     33.53234254	     11.64295604	     -0.65131599	    -43.02619837	     22.16437278	      0.91901736	     -6.17608395	     -0.01276456	    -26.77702740	    -16.86613403	     -9.39323140	     84.63996598	    118.28132514	    -27.44427516	    -12.26351419	     -8.63513876	    102.93243581	    100.62490373	      0.00000000	      0.00000000	      0.00000000	      0.00000000	      0.00000000	      0.00000000	      0.00000000	      0.00000000	      0.96389889	      1.00645336	     -0.45833984	      0.97611109	      1.00410968	     -0.22116426	      0.80787485	      1.07360212	     -0.39659825	      0.81190381	      1.06351034	     -0.28366227	      0.90883833	      0.88302627	     -0.17867707	      0.88552780	      0.73446358	     -0.18822631	      0.96153754	      0.59218205	     -0.18894460	      0.91594836	      0.88985042	     -0.52434132	      0.88092044	      0.72821594	     -0.46881225	      0.96280422	      0.60811978	     -0.46319115	      0.88381227	      0.40349164	     -0.24865558	      0.81803702	      0.46698542	     -0.17843069	      0.69291640	      0.38560184	     -0.25155164	      1.01679366	      0.38953522	     -0.37853153	      0.90444856	      0.30758776	     -0.42478603	      0.91367295	      0.19612776	     -0.35440707	      0.54157159	      0.47178799	     -0.24460250	      0.57648282	      0.23248512	     -0.26885456	      0.54300142	      0.27151249	     -0.17522310	      0.74297636	      0.10280622	     -0.32443769	      0.97982729	      0.07153374	     -0.31716780	      0.92844826	      0.03935867	     -0.41563702	      0.94366174	      1.48448620	     -0.52032038	      0.98658893	      1.47634722	     -0.19404990	      1.03316911	      1.44330278	     -0.32930294	      0.90875770	      1.51433086	     -0.35648794	      0.87172381	      1.39105452	     -0.12524716	      0.90886069	      1.32814034	     -0.09651458	      0.83259778	      1.26348117	     -0.05216831	      0.79365604	      1.21314639	     -0.02114826	      0.78145538	      1.18394022	     -0.10443726	      0.83800859	      1.38660840	     -0.55890364	      0.85914368	      1.30588903	     -0.58393218	      0.78124604	      1.24459060	     -0.59887951	      0.75611555	      1.18167144	     -0.61539808	      0.75126410	      1.16510902	     -0.52659416	      0.86597190	      1.12612800	     -0.01732823	      0.98632107	      1.01797493	     -0.10741253	      0.95294608	      0.99541203	     -0.05135358	      0.81305463	      1.11716330	     -0.61614706	      0.98849820	      1.08532143	     -0.54502899	      0.96585187	      1.02414788	     -0.57327305
      2.44000000	    -14.09010727	      4.22962620	      2.60672154	      0.94786340	      0.96506321	     -0.34548331	     34.87524346	     -5.17276273	      2.44710585	    -98.01381587	      2.28681674	     31.28453773	     11.99368704	     -0.53633289	    -42.28926240	     23.42639686	      0.94711556	     -6.56209768	     -0.99570623	    -27.56862397	    -16.88661908	     -9.36257642	     83.08344569	    118.79901937	    -25.90676531	    -12.51131283	     -8.58997379	    102.63380522	    101.01642585	      0.00000000	      0.00000000	      0.00000000	      0.00000000	      0.00000000	      0.00000000	      0.00000000	      0.00000000	      0.96348862	      1.00732559	     -0.45800098	      0.97356673	      1.00384332	     -0.22073672	      0.80753166	      1.07522600	     -0.39731695	      0.81021599	      1.06429192	     -0.28441953	      0.90978380	      0.88372197	     -0.17670977	      0.89228242	      0.73528271	     -0.18723126	      0.97656955	      0.59663190	     -0.18846016	      0.91487597	      0.88994725	     -0.52382069	      0.87255154	      0.72928645	     -0.46943635	      0.94975563	      0.60601729	     -0.46203379	      0.90503557	      0.40619085	     -0.24911962	      0.83833844	      0.46656383	     -0.17772458	      0.71479935	      0.38244412	     -0.25013952	      0.99547916	      0.38572290	     -0.37683981	      0.88087179	      0.30720693	     -0.42358090	      0.88690031	      0.19513774	     -0.35379428	      0.55919930	      0.46274842	     -0.24164709	      0.60646120	      0.22547608	     -0.26489366	      0.57296132	      0.26364667	     -0.17065894	      0.71332637	      0.10406210	     -0.32407960	      0.95000927	      0.07139544	     -0.31724988	      0.89826075	      0.03971142	     -0.41573709	      0.94577583	      1.48483158	     -0.52036938	      0.98355737	      1.47642690	     -0.19336110	      1.03181576	      1.44359136	     -0.32793832	      0.90763864	      1.51475899	     -0.35699252	      0.86593499	      1.39288984	     -0.12653805	      0.90153570	      1.33015131	     -0.09641997	      0.82265405	      1.26770657	     -0.05371969	      0.78220920	      1.21828045	     -0.02286586	      0.77159559	      1.18864156	     -0.10615038	      0.84178692	      1.38402383	     -0.55942122	      0.86632498	      1.30436403	     -0.58545361	      0.79108794	      1.24045409	     -0.60169487	      0.76885708	      1.17685445	     -0.61942671	      0.76157277	      1.15991168	     -0.53058994	      0.85104657	      1.12840833	     -0.01578958	      0.96973309	      1.01407869	     -0.10178870	      0.93420067	      0.99386341	     -0.04589948	      0.82779539	      1.11400770	     -0.61891299	      1.00143116	      1.08442471	     -0.54280429	      0.98099883	      1.02282181	     -0.57188934
      2.45000000	    -14.16505950	      4.50843563	      2.23802767	      0.94746433	      0.96705927	     -0.34501720	     37.52041133	     -5.02641970	      3.64712255	    -98.03135703	      3.33877339	     28.61326598	     12.17187670	     -0.39183811	    -40.76629665	     24.19833365	      1.09339637	     -6.76296417	     -2.01758155	    -28.67181803	    -17.13974752	     -9.13150300	     82.53742271	    118.20410419	    -25.08563376	    -12.56179214	     -8.99462924	    103.62758452	    101.34079826	      0.00000000	      0.00000000	      0.00000000	      0.00000000	      0.00000000	      0.00000000	      0.00000000	      0.00000000	      0.96372208	      1.00919007	     -0.45771869	      0.97118786	      1.00489016	     -0.22070751	      0.80783002	      1.07783951	     -0.39808917	      0.80903962	      1.06655033	     -0.28501728	      0.91226885	      0.88643025	     -0.17484937	      0.89879211	      0.73814593	     -0.18689636	      0.99076836	      0.60336229	     -0.18847634	      0.91332521	      0.89076362	     -0.52322264	      0.86360983	      0.73126895	     -0.47069242	      0.93525404	      0.60512501	     -0.46111589	      0.92560358	      0.41033376	     -0.24995296	      0.85784312	      0.46767379	     -0.17733741	      0.73807003	      0.37839904	     -0.24870427	      0.97242582	      0.38311516	     -0.37560595	      0.85589125	      0.30746540	     -0.42267979	      0.85949115	      0.19492603	     -0.35344382	      0.57683401	      0.45146098	     -0.23891645	      0.63842513	      0.21747696	     -0.26147300	      0.60370504	      0.25413442	     -0.16704595	      0.68373348	      0.10558731	     -0.32370482	      0.92026984	      0.07127546	     -0.31751176	      0.86801227	      0.03984760	     -0.41561443	      0.94844049	      1.48698782	     -0.52018937	      0.98007951	      1.47853939	     -0.19252253	      1.03043495	      1.44575129	     -0.32646704	      0.90687942	      1.51686196	     -0.35765109	      0.85977952	      1.39693493	     -0.12782198	      0.89364633	      1.33444277	     -0.09602187	      0.81250098	      1.27426303	     -0.05482968	      0.77035402	      1.22593991	     -0.02431275	      0.76136061	      1.19588883	     -0.10759315	      0.84650612	      1.38443038	     -0.56150952	      0.87297196	      1.30543124	     -0.58672870	      0.79934780	      1.23999700	     -0.60360971	      0.77946733	      1.17573730	     -0.62244255	      0.76980426	      1.15844802	     -0.53354973	      0.83582360	      1.13374006	     -0.01473144	      0.95409233	      1.01617573	     -0.09750510	      0.91640236	      0.99692340	     -0.04267368	      0.84049741	      1.11445354	     -0.62039394	      1.01322996	      1.09061245	     -0.54036228	      0.99481641	      1.02864143	     -0.57031507
